<?xml version="1.0" encoding="UTF-8"?>
<svg id="_Слой_1" data-name="Слой 1" xmlns="http://www.w3.org/2000/svg" viewBox="0 0 163.95 24.78">
  <defs>
    <style>
      .cls-1, .cls-2, .cls-3 {
        stroke-width: 0px;
      }

      .cls-2 {
        fill: #fff;
      }

      .cls-3 {
        fill: #00adff;
      }
    </style>
  </defs>
  <g>
    <path class="cls-1" d="m3.74,14.42v5.71H0V3.45h5.38c2.21,0,3.92.43,5.14,1.28,1.22.85,1.82,2.18,1.82,3.99,0,.99-.16,1.85-.49,2.56-.33.71-.8,1.3-1.4,1.77s-1.34.81-2.21,1.03c-.86.22-1.82.34-2.88.34h-1.61Zm0-8.57v6.17h1.63c1.01,0,1.8-.26,2.38-.77.58-.51.86-1.33.86-2.46,0-1.07-.27-1.82-.8-2.27-.54-.45-1.32-.67-2.34-.67h-1.73Z"/>
    <path class="cls-1" d="m24.77,19.15c-.37.27-.93.54-1.68.82s-1.67.41-2.76.41-2.07-.15-2.9-.44-1.52-.72-2.08-1.27c-.55-.55-.97-1.22-1.25-2-.28-.78-.42-1.66-.42-2.62s.14-1.85.43-2.63c.29-.78.7-1.44,1.22-1.98.53-.54,1.16-.96,1.88-1.26.73-.3,1.54-.44,2.44-.44s1.7.14,2.42.43c.72.29,1.32.72,1.79,1.3.47.58.8,1.3.98,2.16.18.86.18,1.86-.01,3h-7.68c.11,1.14.47,1.99,1.07,2.54s1.43.82,2.48.82c.67,0,1.29-.09,1.86-.28s1.08-.41,1.52-.68l.67,2.14Zm-5.11-9.36c-.66,0-1.2.25-1.62.76-.42.5-.7,1.24-.83,2.22h4.51c.03-1.02-.14-1.78-.52-2.26-.38-.48-.89-.72-1.55-.72Z"/>
    <path class="cls-1" d="m34.42,20.13c-.08-.21-.15-.45-.2-.73-.06-.28-.1-.58-.13-.9-.14.22-.32.45-.53.67-.21.22-.45.42-.72.6-.27.18-.59.32-.96.43-.37.11-.78.17-1.25.17-.58,0-1.11-.07-1.61-.22-.5-.14-.92-.36-1.27-.66-.35-.3-.63-.67-.83-1.12-.2-.45-.3-.97-.3-1.56,0-1.18.51-2.14,1.54-2.87,1.02-.73,2.61-1.09,4.75-1.09h1.03v-.68c0-.73-.18-1.27-.53-1.63-.35-.36-1.01-.54-1.97-.54-.7,0-1.31.12-1.82.35-.51.24-1.02.53-1.51.89l-1.01-2.42c.51-.3,1.16-.56,1.93-.78s1.75-.32,2.92-.32c1.76,0,3.12.34,4.07,1.02.95.68,1.43,1.79,1.43,3.32v6.12c0,.27.01.61.04,1.02.02.41.06.72.11.92h-3.17Zm-2.66-1.92c.58,0,1.04-.14,1.38-.42s.61-.62.8-1.04v-2.19h-.96c-1.09,0-1.84.17-2.27.5s-.64.82-.64,1.45c0,.57.15,1,.46,1.28.3.28.71.42,1.22.42Z"/>
    <path class="cls-1" d="m43.75,13.82v6.31h-3.5V7.96h3.5v5.81l4.75-5.81h3.12l-4.34,5.35,4.68,6.82h-3.96l-4.25-6.31Z"/>
    <path class="cls-1" d="m59.98,10.36v9.77h-3.53v-9.77h-3.38v-2.4h10.32v2.4h-3.41Z"/>
  </g>
  <g>
    <path class="cls-1" d="m102.54,15.44c-.35,1.77-1,3.04-1.93,3.8-.94.76-2.05,1.07-3.35.95l-.36-2.95c.8,0,1.42-.21,1.87-.62.45-.42.76-1.06.94-1.92.21-.98.35-2.41.42-4.3.07-1.89.12-4.2.16-6.94h11.11v16.68h-3.62V5.85h-4.58c-.05,2.11-.11,3.95-.19,5.52-.08,1.57-.23,2.93-.46,4.06Z"/>
    <path class="cls-1" d="m121.54,20.13c-.08-.21-.15-.45-.2-.73-.06-.28-.1-.58-.13-.9-.14.22-.32.45-.53.67-.21.22-.45.42-.72.6-.27.18-.59.32-.96.43-.37.11-.78.17-1.25.17-.58,0-1.11-.07-1.61-.22-.5-.14-.92-.36-1.27-.66-.35-.3-.63-.67-.83-1.12-.2-.45-.3-.97-.3-1.56,0-1.18.51-2.14,1.54-2.87,1.02-.73,2.61-1.09,4.75-1.09h1.03v-.68c0-.73-.18-1.27-.53-1.63-.35-.36-1.01-.54-1.97-.54-.7,0-1.31.12-1.82.35-.51.24-1.02.53-1.51.89l-1.01-2.42c.51-.3,1.16-.56,1.93-.78s1.75-.32,2.92-.32c1.76,0,3.12.34,4.07,1.02.95.68,1.43,1.79,1.43,3.32v6.12c0,.27.01.61.04,1.02.02.41.06.72.11.92h-3.17Zm-2.66-1.92c.58,0,1.04-.14,1.38-.42s.61-.62.8-1.04v-2.19h-.96c-1.09,0-1.84.17-2.27.5s-.64.82-.64,1.45c0,.57.15,1,.46,1.28.3.28.71.42,1.22.42Z"/>
    <path class="cls-1" d="m127.38,7.96h5.42c1.55,0,2.71.25,3.47.75.76.5,1.14,1.3,1.14,2.38,0,.73-.2,1.32-.61,1.76-.41.44-.96.75-1.64.92.9.14,1.58.45,2.05.9.47.46.71,1.11.71,1.96,0,1.17-.46,2.05-1.38,2.62-.92.58-2.18.87-3.78.87h-5.38V7.96Zm3.38,1.92v3.14h1.27c.62,0,1.11-.13,1.46-.4.35-.26.53-.63.53-1.09,0-.59-.16-1.02-.48-1.27-.32-.26-.79-.38-1.42-.38h-1.37Zm0,4.85v3.48h1.42c.67,0,1.2-.13,1.6-.39.39-.26.59-.72.59-1.39,0-.62-.18-1.05-.54-1.31-.36-.26-.91-.39-1.64-.39h-1.42Z"/>
    <path class="cls-1" d="m143.91,13.82v6.31h-3.5V7.96h3.5v5.81l4.75-5.81h3.12l-4.34,5.35,4.68,6.82h-3.96l-4.25-6.31Z"/>
    <path class="cls-1" d="m160.78,20.13c-.08-.21-.15-.45-.2-.73-.06-.28-.1-.58-.13-.9-.14.22-.32.45-.53.67-.21.22-.45.42-.72.6-.27.18-.59.32-.96.43-.37.11-.78.17-1.25.17-.58,0-1.11-.07-1.61-.22-.5-.14-.92-.36-1.27-.66-.35-.3-.63-.67-.83-1.12-.2-.45-.3-.97-.3-1.56,0-1.18.51-2.14,1.54-2.87,1.02-.73,2.61-1.09,4.75-1.09h1.03v-.68c0-.73-.18-1.27-.53-1.63-.35-.36-1.01-.54-1.97-.54-.7,0-1.31.12-1.82.35-.51.24-1.02.53-1.51.89l-1.01-2.42c.51-.3,1.16-.56,1.93-.78s1.75-.32,2.92-.32c1.76,0,3.12.34,4.07,1.02.95.68,1.43,1.79,1.43,3.32v6.12c0,.27.01.61.04,1.02.02.41.06.72.11.92h-3.17Zm-2.66-1.92c.58,0,1.04-.14,1.38-.42s.61-.62.8-1.04v-2.19h-.96c-1.09,0-1.84.17-2.27.5s-.64.82-.64,1.45c0,.57.15,1,.46,1.28.3.28.71.42,1.22.42Z"/>
  </g>
  <path class="cls-3" d="m93.31,12.39c0-6.84-5.55-12.39-12.39-12.39s-12.39,5.55-12.39,12.39,5.55,12.39,12.39,12.39,12.39-5.55,12.39-12.39Z"/>
  <g id="Page-1">
    <g id="React-Logo-Filled-_1_" data-name="React-Logo-Filled-(1)">
      <path id="Path" class="cls-2" d="m80.95,10.56c-1,0-1.81.81-1.81,1.81s.81,1.81,1.81,1.81,1.81-.81,1.81-1.81-.81-1.81-1.81-1.81"/>
      <path id="Shape" class="cls-2" d="m90.39,12.39c0-1.42-1.32-2.67-3.42-3.5.03-.19.05-.37.07-.55.21-2.05-.29-3.52-1.39-4.16-1.23-.71-2.97-.2-4.73,1.21-1.76-1.41-3.5-1.93-4.73-1.21-1.1.64-1.59,2.11-1.39,4.16.02.18.04.36.07.55-.18.07-.35.14-.51.21-1.87.84-2.91,2.01-2.91,3.28,0,1.42,1.32,2.67,3.42,3.5-.03.19-.05.37-.07.55-.21,2.05.29,3.52,1.39,4.16.38.21.81.32,1.24.32,1.04,0,2.26-.55,3.49-1.53,1.23.98,2.45,1.53,3.49,1.53.44,0,.86-.1,1.24-.32,1.1-.64,1.59-2.11,1.39-4.16-.02-.18-.04-.36-.07-.55,2.1-.82,3.42-2.07,3.42-3.5m-5.99-7.62c.28,0,.56.06.8.2.77.44,1.11,1.64.94,3.29-.01.11-.02.23-.04.34-.87-.26-1.77-.45-2.67-.56-.55-.73-1.16-1.41-1.82-2.04,1.04-.81,2.02-1.23,2.79-1.23m-.36,9.42c-.34.59-.71,1.16-1.1,1.7-.67.07-1.35.1-2.02.1-.68,0-1.35-.03-2.02-.1-.4-.55-.76-1.12-1.1-1.7-.34-.59-.65-1.19-.92-1.8.28-.62.58-1.22.92-1.8.34-.58.7-1.15,1.1-1.7.67-.07,1.35-.11,2.03-.11.68,0,1.35.03,2.02.1.4.55.76,1.12,1.1,1.7.34.59.64,1.19.92,1.8-.28.62-.58,1.22-.92,1.8m1.38-.67c.21.58.39,1.17.52,1.77-.59.18-1.18.33-1.79.43.23-.35.45-.71.67-1.08.21-.37.41-.74.6-1.12m-5.77,3.33c.42.03.84.04,1.27.04s.86-.01,1.27-.04c-.39.47-.82.92-1.27,1.34-.45-.42-.88-.86-1.27-1.34Zm-1.97-1.14c-.6-.1-1.2-.25-1.79-.43.13-.6.31-1.19.52-1.77.19.37.38.75.6,1.12.22.37.44.74.67,1.08m-1.27-4.48c-.21-.58-.38-1.16-.52-1.76.58-.18,1.18-.33,1.78-.43-.23.35-.45.7-.67,1.08-.22.37-.41.74-.6,1.12m5.78-3.33c-.42-.03-.84-.04-1.27-.04s-.85.01-1.27.04c.39-.47.82-.92,1.27-1.34.45.42.88.86,1.27,1.34Zm2.63,2.22c-.22-.38-.44-.74-.67-1.08.61.1,1.21.25,1.79.43-.13.6-.31,1.19-.52,1.77-.19-.37-.39-.75-.6-1.12m-9.13-1.88c-.17-1.65.18-2.85.94-3.29.25-.14.52-.2.8-.2.77,0,1.75.42,2.79,1.23-.67.63-1.28,1.31-1.83,2.04-.91.11-1.8.3-2.67.56-.02-.11-.03-.23-.04-.34m-.97,1.67c.1-.04.21-.09.31-.13.21.89.5,1.75.85,2.59-.36.84-.64,1.71-.85,2.6-1.7-.7-2.69-1.67-2.69-2.6,0-.88.87-1.78,2.38-2.46Zm1.91,9.88c-.76-.44-1.11-1.64-.94-3.29.01-.11.02-.23.04-.34.87.26,1.77.45,2.67.56.55.73,1.16,1.41,1.82,2.04-1.46,1.12-2.79,1.5-3.59,1.03m9.51-3.29c.17,1.65-.18,2.85-.94,3.29-.81.47-2.14.1-3.59-1.03.66-.63,1.27-1.31,1.82-2.04.91-.11,1.8-.3,2.67-.56.02.11.03.23.04.34m.65-1.54c-.21-.89-.5-1.76-.85-2.6.36-.84.64-1.71.85-2.6,1.7.7,2.69,1.67,2.69,2.6s-.99,1.9-2.69,2.6"/>
    </g>
  </g>
</svg>