<?xml version="1.0" encoding="UTF-8"?>
<svg id="_Слой_2" data-name="Слой 2" xmlns="http://www.w3.org/2000/svg" viewBox="0 0 24.78 24.78">
  <defs>
    <style>
      .cls-1 {
        fill: #fff;
      }

      .cls-1, .cls-2 {
        stroke-width: 0px;
      }

      .cls-2 {
        fill: #00adff;
      }
    </style>
  </defs>
  <g id="_Слой_1-2" data-name="Слой 1">
    <path class="cls-2" d="m24.78,12.39C24.78,5.55,19.23,0,12.39,0S0,5.55,0,12.39s5.55,12.39,12.39,12.39,12.39-5.55,12.39-12.39Z"/>
    <g id="Page-1">
      <g id="React-Logo-Filled-_1_" data-name="React-Logo-Filled-(1)">
        <path id="Path" class="cls-1" d="m12.42,10.56c-1,0-1.81.81-1.81,1.81s.81,1.81,1.81,1.81,1.81-.81,1.81-1.81-.81-1.81-1.81-1.81"/>
        <path id="Shape" class="cls-1" d="m21.86,12.39c0-1.42-1.32-2.67-3.42-3.5.03-.19.05-.37.07-.55.21-2.05-.29-3.52-1.39-4.16-1.23-.71-2.97-.2-4.73,1.21-1.76-1.41-3.5-1.93-4.73-1.21-1.1.64-1.59,2.11-1.39,4.16.02.18.04.36.07.55-.18.07-.35.14-.51.21-1.87.84-2.91,2.01-2.91,3.28,0,1.42,1.32,2.67,3.42,3.5-.03.19-.05.37-.07.55-.21,2.05.29,3.52,1.39,4.16.38.21.81.32,1.24.32,1.04,0,2.26-.55,3.49-1.53,1.23.98,2.45,1.53,3.49,1.53.44,0,.86-.1,1.24-.32,1.1-.64,1.59-2.11,1.39-4.16-.02-.18-.04-.36-.07-.55,2.1-.82,3.42-2.07,3.42-3.5m-5.99-7.62c.28,0,.56.06.8.2.77.44,1.11,1.64.94,3.29-.01.11-.02.23-.04.34-.87-.26-1.77-.45-2.67-.56-.55-.73-1.16-1.41-1.82-2.04,1.04-.81,2.02-1.23,2.79-1.23m-.36,9.42c-.34.59-.71,1.16-1.1,1.7-.67.07-1.35.1-2.02.1-.68,0-1.35-.03-2.02-.1-.4-.55-.76-1.12-1.1-1.7-.34-.59-.65-1.19-.92-1.8.28-.62.58-1.22.92-1.8.34-.58.7-1.15,1.1-1.7.67-.07,1.35-.11,2.03-.11.68,0,1.35.03,2.02.1.4.55.76,1.12,1.1,1.7.34.59.64,1.19.92,1.8-.28.62-.58,1.22-.92,1.8m1.38-.67c.21.58.39,1.17.52,1.77-.59.18-1.18.33-1.79.43.23-.35.45-.71.67-1.08.21-.37.41-.74.6-1.12m-5.77,3.33c.42.03.84.04,1.27.04s.86-.01,1.27-.04c-.39.47-.82.92-1.27,1.34-.45-.42-.88-.86-1.27-1.34Zm-1.97-1.14c-.6-.1-1.2-.25-1.79-.43.13-.6.31-1.19.52-1.77.19.37.38.75.6,1.12.22.37.44.74.67,1.08m-1.27-4.48c-.21-.58-.38-1.16-.52-1.76.58-.18,1.18-.33,1.78-.43-.23.35-.45.7-.67,1.08-.22.37-.41.74-.6,1.12m5.78-3.33c-.42-.03-.84-.04-1.27-.04s-.85.01-1.27.04c.39-.47.82-.92,1.27-1.34.45.42.88.86,1.27,1.34Zm2.63,2.22c-.22-.38-.44-.74-.67-1.08.61.1,1.21.25,1.79.43-.13.6-.31,1.19-.52,1.77-.19-.37-.39-.75-.6-1.12m-9.13-1.88c-.17-1.65.18-2.85.94-3.29.25-.14.52-.2.8-.2.77,0,1.75.42,2.79,1.23-.67.63-1.28,1.31-1.83,2.04-.91.11-1.8.3-2.67.56-.02-.11-.03-.23-.04-.34m-.97,1.67c.1-.04.21-.09.31-.13.21.89.5,1.75.85,2.59-.36.84-.64,1.71-.85,2.6-1.7-.7-2.69-1.67-2.69-2.6,0-.88.87-1.78,2.38-2.46Zm1.91,9.88c-.76-.44-1.11-1.64-.94-3.29.01-.11.02-.23.04-.34.87.26,1.77.45,2.67.56.55.73,1.16,1.41,1.82,2.04-1.46,1.12-2.79,1.5-3.59,1.03m9.51-3.29c.17,1.65-.18,2.85-.94,3.29-.81.47-2.14.1-3.59-1.03.66-.63,1.27-1.31,1.82-2.04.91-.11,1.8-.3,2.67-.56.02.11.03.23.04.34m.65-1.54c-.21-.89-.5-1.76-.85-2.6.36-.84.64-1.71.85-2.6,1.7.7,2.69,1.67,2.69,2.6s-.99,1.9-2.69,2.6"/>
      </g>
    </g>
  </g>
</svg>